<svg xmlns="http://www.w3.org/2000/svg" xmlns:xlink="http://www.w3.org/1999/xlink" width="28px" viewBox="0 0 180 193" version="1.1">
<g xmlns="http://www.w3.org/2000/svg">
    <g>
      <g>
        <path d="M37.92,173.11c.21.11.41.23.61.32a70.74,70.74,0,0,0,19.75,6.8l1.1.35v1.65a11,11,0,0,0,11,11H92.94V179.15A90.55,90.55,0,0,0,137.39,27.47,90,90,0,0,0,74.6.36L56.11,0V40.39a71.46,71.46,0,0,0-52.46,47,2.36,2.36,0,0,0-.28.12,72.51,72.51,0,0,0,34.55,85.58m-1.43-67.33A35.05,35.05,0,0,1,71.06,75,21.6,21.6,0,0,0,86,69.09,20.9,20.9,0,0,0,92.37,54V40.31A54.25,54.25,0,0,1,76.05,145.05l-.13-.06-4.27.16-2.51-.05c-1.18-.08-2.34-.21-3.5-.4l-.59-.1a35.07,35.07,0,0,1-28.19-27.86l-.21-1.09a28.36,28.36,0,0,1-.3-8.77Z" style="fill: #e02932"></path>
      </g>
    </g>
  </g>
  </svg>